<svg id="レイヤー_1" data-name="レイヤー 1" xmlns="http://www.w3.org/2000/svg" viewBox="0 0 480 80"><defs><style>.cls-1{fill:#2cb5a9;}.cls-2{fill:#c09b9b;}.cls-3{fill:#fff;}.cls-4{fill:#717071;}</style></defs><path class="cls-1" d="M34.68,32.37A3.89,3.89,0,0,0,36,32.19a1.2,1.2,0,0,0,.68-.58c.3-.6.47-2.81.49-6.64,0-.5,0-.88,0-1.13l0-3.53c0-.47,0-1.09,0-1.86s0-1.31,0-1.61a9.54,9.54,0,0,0-.48-3.8,1.86,1.86,0,0,0-1.8-.88h-.37V10.73c.91.06,1.78.1,2.59.13s1.54,0,2.17,0,1.4,0,2.21,0l.37,0A9.16,9.16,0,0,0,34.28,7a9,9,0,0,0-8.8,9.16c0,6.05,3.29,10.51,6.68,14.62.41.5.87,1,1.37,1.62Z"/><path class="cls-1" d="M53,7a9.45,9.45,0,0,0-9.34,7.09h-.09a11.14,11.14,0,0,0-.69-1.73,1.56,1.56,0,0,0-.79.63,8.63,8.63,0,0,0-.48,3.65c0,.28,0,.79,0,1.52s0,1.33,0,1.8l0,11.34h.1c1.39.09,2.44.13,3.15.13q4,0,5.31-.84a6.05,6.05,0,0,0,2.07-3.2l1.49.46c-.34,1-.64,2-.9,3s-.49,2-.69,3q-2.85-.1-5.31-.15c-1.64,0-3.14,0-4.49,0s-2.7,0-4.07,0c-1.18,0-2.36.08-3.53.13,3.32,3.74,7.48,8.14,8.77,9.43h.09c1.67-1.67,8.16-8.53,11.41-12.45,3.38-4.11,6.68-8.57,6.68-14.62A8.91,8.91,0,0,0,53,7Z"/><path class="cls-1" d="M51.47,61.51l2.32,1.09,3.54,1.62c1.39.65,2.55,1.2,3.47,1.65s1.51.74,1.75.88c.69.4,1.08.8,1.18,1.21a2.72,2.72,0,0,1-.52,1.76l-.21.36,1.25.73c.31-.62.62-1.21.92-1.78s.59-1.08.86-1.54.69-1.15,1.42-2.31l.71-1.13L68,64q-1.08-.63-6.85-8.32L57.5,50.75l10.37,1.1c2.2.24,3.73.44,4.6.61a6.32,6.32,0,0,1,1.86.57l.14.08a4.62,4.62,0,0,0,.23-.43c.76-1.46,1.32-2.51,1.68-3.13.2-.35.63-1,1.31-2.1.27-.44.49-.77.64-1l-1.26-.73a4,4,0,0,1-1.47,1.7A2.16,2.16,0,0,1,73.81,47c-.38-.22-1-.59-1.84-1.13L69.2,44.06,65.91,41.9c-1.83-1.22-3.18-2.12-4-2.73,4.69-.68,9.53-.85,14.16,1.82a8.9,8.9,0,0,1,3.55,12.16,9.44,9.44,0,0,1-10.8,4.54l0,.08c3.4,3.68,3.57,8,1.51,11.56a8.94,8.94,0,0,1-12.32,3c-4.81-2.77-7.08-7.28-8.86-11.86A22.7,22.7,0,0,1,51.47,61.51Z"/><path class="cls-1" d="M53.86,42.7l1.26.73.25-.43a2.76,2.76,0,0,1,1.31-1.36,2,2,0,0,1,1.64.36l.69.4.89.58,10.83,7L56.35,48.45c-1.38-.15-2.42-.29-3.1-.43a15.59,15.59,0,0,1-1.91-.5L50.47,49a11.64,11.64,0,0,1,1,1.06c.35.4.8,1,1.35,1.69L62.2,64c-3.18-1.48-5.84-2.73-8-3.77s-3.56-1.78-4.29-2.2c-1-.57-1.58-1.09-1.73-1.54a2.43,2.43,0,0,1,.46-1.88l.23-.39-1.26-.72c-.23.44-.43.85-.62,1.21-1.51-4.58-3.08-9.85-3.52-11.52l0-.08c1.67-.45,7.07-1.75,11.81-2.75C55,40.94,54.5,41.71,53.86,42.7Z"/><path class="cls-1" d="M29.2,72.36c5.23-3,7.46-8.1,9.32-13.09C40.29,54.5,43,45.48,43.62,43.2l0-.08c-2.28-.61-11.46-2.81-16.49-3.66-5.24-.87-10.76-1.49-16,1.53A8.92,8.92,0,0,0,7.53,53.15a9.33,9.33,0,0,0,9.53,4.76,14.38,14.38,0,0,1-.84-1.29A16.2,16.2,0,0,1,15,54.06a22,22,0,0,1-.84-3l.31-.18a21.91,21.91,0,0,0,2-1.33c.67-.49,1.33-1,2-1.63l1.07,1.32a4.74,4.74,0,0,0-2,2.94,5.41,5.41,0,0,0,.84,3.59,5.68,5.68,0,0,0,2.35,2.41A2.6,2.6,0,0,0,23.38,58a2.91,2.91,0,0,0,1.21-1.25,4.17,4.17,0,0,0,.32-1.92A20.77,20.77,0,0,0,24.46,52c-.28-1.34-.46-2.34-.56-3a7.48,7.48,0,0,1,.38-3.89,5.43,5.43,0,0,1,2.37-2.59A6.77,6.77,0,0,1,32.87,42a11.61,11.61,0,0,1,5.48,5.28,16.62,16.62,0,0,1,1.27,2.81,17.93,17.93,0,0,1,.77,3l-.43.22-.39.21A22.79,22.79,0,0,0,37.45,55a24.68,24.68,0,0,0-2.07,1.75l-1.26-1.31a7.31,7.31,0,0,0,2.61-3.79,6,6,0,0,0-1-4.11A5.48,5.48,0,0,0,33.16,45a3.07,3.07,0,0,0-2.88.21q-2,1.16-1.15,5.79c.13.68.23,1.21.29,1.57a10.88,10.88,0,0,1-.11,5.14,5.56,5.56,0,0,1-2.62,3.06,6.18,6.18,0,0,1-5.59.43,8.76,8.76,0,0,1-3.45-2.57,9.27,9.27,0,0,0-.78,10.68A9,9,0,0,0,29.2,72.36Z"/><path class="cls-2" d="M35.14,34.19l.16.18h0Z"/><path class="cls-3" d="M33.48,32.3h0l0,0Z"/><path class="cls-3" d="M52.26,27.37a6.05,6.05,0,0,1-2.07,3.2q-1.26.84-5.31.84c-.71,0-1.76,0-3.15-.13h-.1l0-11.34c0-.47,0-1.06,0-1.8s0-1.24,0-1.52A8.63,8.63,0,0,1,42.05,13a1.56,1.56,0,0,1,.79-.63A12.77,12.77,0,0,0,42,10.84l-.37,0-2.21,0-2.17,0c-.81,0-1.68-.07-2.59-.13v1.43H35a1.86,1.86,0,0,1,1.8.88,9.54,9.54,0,0,1,.48,3.8c0,.3,0,.84,0,1.61s0,1.39,0,1.86l0,3.53c0,.25,0,.63,0,1.13,0,3.83-.19,6-.49,6.64a1.2,1.2,0,0,1-.68.58,3.89,3.89,0,0,1-1.34.18H33.53l1.24,1.4c1.17-.05,2.34-.1,3.52-.13,1.37,0,2.72,0,4.07,0s2.85,0,4.49,0,3.41.08,5.31.15c.2-1,.43-2,.69-3s.56-2,.9-3Z"/><path class="cls-3" d="M21.1,61.22a6.18,6.18,0,0,0,5.59-.43,5.56,5.56,0,0,0,2.62-3.06,10.88,10.88,0,0,0,.11-5.14c-.06-.36-.16-.89-.29-1.57q-.87-4.64,1.15-5.79A3.07,3.07,0,0,1,33.16,45a5.48,5.48,0,0,1,2.56,2.49,6.1,6.1,0,0,1,1,4.11,7.31,7.31,0,0,1-2.61,3.79l1.26,1.31A24.68,24.68,0,0,1,37.45,55a22.79,22.79,0,0,1,2.12-1.4l.39-.21.43-.22a17.93,17.93,0,0,0-.77-3,16.62,16.62,0,0,0-1.27-2.81A11.61,11.61,0,0,0,32.87,42a6.77,6.77,0,0,0-6.22.47,5.43,5.43,0,0,0-2.37,2.59A7.48,7.48,0,0,0,23.9,49c.1.66.28,1.66.56,3a20.77,20.77,0,0,1,.45,2.91,4.17,4.17,0,0,1-.32,1.92A2.91,2.91,0,0,1,23.38,58a2.6,2.6,0,0,1-2.56.12,5.68,5.68,0,0,1-2.35-2.41,5.35,5.35,0,0,1-.84-3.59,4.74,4.74,0,0,1,2-2.94l-1.07-1.32c-.67.6-1.33,1.14-2,1.63a21.91,21.91,0,0,1-2,1.33l-.31.18a22,22,0,0,0,.84,3,16.2,16.2,0,0,0,1.19,2.56,14.38,14.38,0,0,0,.84,1.29l1.12-.13-.53.87A8.76,8.76,0,0,0,21.1,61.22Z"/><path class="cls-3" d="M53.79,62.6l3.54,1.62c1.39.65,2.55,1.2,3.47,1.65s1.51.74,1.75.88c.69.4,1.08.8,1.18,1.21a2.72,2.72,0,0,1-.52,1.76l-.21.36,1.25.73c.31-.62.62-1.21.92-1.78s.59-1.08.86-1.54.69-1.15,1.42-2.31l.71-1.13L68,64q-1.08-.63-6.85-8.32L57.5,50.75l10.37,1.1c2.2.24,3.73.44,4.6.61a6.32,6.32,0,0,1,1.86.57l.14.08a4.62,4.62,0,0,0,.23-.43c.76-1.46,1.32-2.51,1.68-3.13.2-.35.63-1,1.31-2.1.27-.44.49-.77.64-1l-1.26-.73a4,4,0,0,1-1.47,1.7A2.16,2.16,0,0,1,73.81,47c-.38-.22-1-.59-1.84-1.13L69.2,44.06,65.91,41.9c-1.83-1.22-3.18-2.12-4-2.73,0,0-2.57.34-6.52,1.2-.35.57-.84,1.34-1.48,2.33l1.26.73.25-.43a2.76,2.76,0,0,1,1.31-1.36,2,2,0,0,1,1.64.36l.69.4.89.58,10.83,7L56.35,48.45c-1.38-.15-2.42-.29-3.1-.43a15.59,15.59,0,0,1-1.91-.5L50.47,49a11.64,11.64,0,0,1,1,1.06c.35.4.8,1,1.35,1.69L62.2,64c-3.18-1.48-5.84-2.73-8-3.77s-3.56-1.78-4.29-2.2c-1-.57-1.58-1.09-1.73-1.54a2.43,2.43,0,0,1,.46-1.88l.23-.39-1.26-.72c-.23.44-.43.85-.62,1.21a44.42,44.42,0,0,0,2,5.78,22.7,22.7,0,0,1,2.42,1Z"/><path class="cls-4" d="M88,23.23a2.78,2.78,0,0,0,2.53,1.07c1.62,0,9.39-.87,11.07-1.12.29-.05,1.52-.45,1.79-.45.65,0,2.43,1.3,2.43,2.07,0,.28-1,1.08-1.1,1.25-.38.48-1.4,2.88-1.65,3.33a15.43,15.43,0,0,1-12,8.57l-.22-.63c1.67-.82,5.77-3.22,8-6.14a16.5,16.5,0,0,0,2.72-5.33c0-.15-.15-.2-.27-.2-.55,0-4.65.48-8.35,1.05-.5.08-2.72.55-3.17.55-1,0-2.45-1.67-2.45-3a4.49,4.49,0,0,1,.1-.8Zm2.63-4.9a2.31,2.31,0,0,0,1.92.68c1.68,0,5.4-.48,6.42-.6.33-.05,1.7-.4,2-.4.6,0,2.42.67,2.42,1.67s-.6,1-3.62,1.15c-1.35.08-3.27.2-5.42.45-.32,0-1.7.28-2,.28a2.72,2.72,0,0,1-2.4-2.5,3.37,3.37,0,0,1,0-.5Z"/><path class="cls-4" d="M108.2,30.1a56,56,0,0,0,11.32-8c1-.92,3.32-3.15,3.32-3.8,0-.5-.55-.75-1-.95l.15-.67a4,4,0,0,1,1-.15c1.28,0,3.73,1.42,3.73,2.6,0,.4-.13.47-1.2,1.2-.45.32-2.25,1.92-3.35,2.92-.93.83-1.45,1.25-1.92,1.6.34.22.92.6.92,1.22,0,.15-.15.85-.15,1,0,.53,0,2.2,0,3.3s.1,5.2.1,6.07c0,.25,0,1.85-1.12,1.85-1.3,0-1.8-2.07-1.8-2.75,0-.32.17-1.75.2-2,.05-.67.1-1.7.1-3.32a25.87,25.87,0,0,0-.15-3.9,28.7,28.7,0,0,1-9.77,4.43Z"/><path class="cls-4" d="M132.83,18.93a2,2,0,0,0,2,1.13c.73,0,8.82-.75,10.5-.85a4.1,4.1,0,0,0,1.42-.25,2.23,2.23,0,0,1,.85-.25c.93,0,2.5,1.75,2.5,2.45,0,.25-.05.25-.7.7-.3.2-.45.5-.67,1.12a30.18,30.18,0,0,1-5.05,9.09,17.5,17.5,0,0,1-9.34,5.53L134,37a23.65,23.65,0,0,0,9.52-9.25,21.51,21.51,0,0,0,2.4-5.92c0-.25-.25-.27-.58-.27s-4.77.25-8.29.77c-.43.05-2.35.55-2.77.55-1.1,0-2.28-1.8-2.28-2.82a3.71,3.71,0,0,1,.18-1Z"/><path class="cls-4" d="M159.69,27.75a15.37,15.37,0,0,1,5.22,2.38,57.3,57.3,0,0,0,5.45-6.7c0-.1-.17-.12-.32-.12s-7.22.5-10.87,1.17a24.94,24.94,0,0,1-2.57.47c-.95,0-2.48-1.47-2.48-3a8.06,8.06,0,0,1,.08-.95l.65-.2a2.07,2.07,0,0,0,2,1.1c.48,0,4.35-.32,5.2-.4,1.23-.1,7.17-.45,8.5-.62.27,0,1.54-.43,1.84-.43,1.1,0,2.48,1.95,2.48,2.55s-.53.67-.65.73c-.48.17-.53.2-1.2.9a76.66,76.66,0,0,1-6.77,6.62,4.67,4.67,0,0,1,1.82,3.24,1.6,1.6,0,0,1-1.42,1.78c-.8,0-1.05-.5-1.68-1.65s-1.54-2.85-5.64-6.27Z"/><path class="cls-4" d="M176.7,33.52c8.4-4.07,12.14-9.76,12.14-9.81s-.12-.08-.17-.08a49.45,49.45,0,0,0-5.2.9c-.12,0-1.6.4-1.72.4-.92,0-2.17-1.67-2.17-2.6a4.91,4.91,0,0,1,.1-.95l.65-.2a1.72,1.72,0,0,0,1.72,1,53,53,0,0,0,7.79-1c.28-.08,1.38-.58,1.6-.58.6,0,2.15,1.25,2.15,2,0,.32-.17.45-.72.77a6.68,6.68,0,0,0-1.4,1.37,47.4,47.4,0,0,1-3.37,3.58c.34.25.77.52.77.87,0,.13-.13.65-.15.78a11.83,11.83,0,0,0-.08,1.62c0,.75.1,4.12.1,4.8,0,.37,0,2.07-1.12,2.07-.85,0-1.6-1.67-1.6-2.37,0-.33.23-1.78.25-2.08,0-1,0-2.55,0-4.12a19.69,19.69,0,0,1-9.32,4.3ZM183.62,16a18.14,18.14,0,0,1,4.92,1.1c.33.12,1.7.74,1.7,2a1.19,1.19,0,0,1-1.17,1.23c-.55,0-.83-.25-1.72-1.1a19.14,19.14,0,0,0-4-2.65Zm6.67,11.06a17.93,17.93,0,0,1,5.6,2.53,3.1,3.1,0,0,1,1.27,2.52c0,1.2-.72,1.55-1.15,1.55s-.65-.18-1.64-1.63a25.86,25.86,0,0,0-4.43-4.37Z"/><path class="cls-4" d="M200.69,23.63c.63-.05.95-.05,1.28-.05.1,0,5.94.05,5.94,3a1.36,1.36,0,0,1-1.3,1.4c-.52,0-.77-.22-1.27-.72a13.32,13.32,0,0,0-4.82-3Zm2.38,9.24c.8,1.28,1.2,1.3,1.47,1.3,1.07,0,5.47-2.77,7.8-4.57a37.06,37.06,0,0,0,7.47-7.74l.64.35c-2.17,5.82-6.27,9.44-13,13.81a9,9,0,0,0-1.33,1,1.59,1.59,0,0,1-1,.47c-1,0-2.92-1.7-2.92-3.45a3.79,3.79,0,0,1,.12-.92Zm0-14.56c3.05-.08,7.2.7,7.2,3.1A1.32,1.32,0,0,1,209,22.83c-.6,0-.88-.3-1.33-.8A13.6,13.6,0,0,0,202.84,19Zm11.17-1c3.55,1,4.6,2.72,4.6,3.55A1,1,0,0,1,218,22c-.4,0-.4,0-1.23-1.23a12.64,12.64,0,0,0-2.87-2.87Zm1.87-1.72c2.95.55,4.9,2.12,4.9,3.32a.9.9,0,0,1-.78,1c-.37,0-.47-.12-1.29-1.12a10.32,10.32,0,0,0-3.13-2.6Z"/><path class="cls-4" d="M221.49,36.62a26.22,26.22,0,0,0,10.26-9,48.3,48.3,0,0,0-6.19-4.17l.3-.6a28.27,28.27,0,0,1,7.24,2.62,19,19,0,0,0,2.38-5.57c0-.77-.63-1.15-1.25-1.55l.17-.65c.35,0,.68,0,1.1,0,1.78,0,3.47,1.72,3.47,2.52,0,.27-.07.37-.72,1.3a17.51,17.51,0,0,0-1.45,2.72c-.62,1.27-1.12,2.1-1.47,2.7,3.75,2.72,3.75,4,3.75,4.59,0,1.23-.73,1.75-1.25,1.75S237,32.87,236.3,32a22.75,22.75,0,0,0-2.6-2.72c-3.37,4.44-6.39,6.62-11.94,8Z"/><path class="cls-4" d="M245.25,18.48c1.38.25,7.25,1.4,7.25,4.6,0,1.1-.63,1.75-1.3,1.75s-1.08-.57-1.6-1.33a17.3,17.3,0,0,0-4.67-4.42Zm.63,13.7c.27.37.87,1.19,1.64,1.19,1.53,0,10-4.77,15.47-12.06l.6.35c-3,7.27-7.62,10.24-13.57,14.09-.17.12-1,.75-1.12.87a1.27,1.27,0,0,1-.75.33c-1,0-3-1.8-3-3.63a8.45,8.45,0,0,1,.08-1Z"/><path class="cls-4" d="M270.64,34c.07-.75.09-1.53.09-2.23V21.08c-.05-2.25-.05-2.55-1.84-3l0-.67a3.72,3.72,0,0,1,1.55-.42c1.32,0,3.35.92,3.35,1.92,0,.27-.28,1.37-.3,1.6a31.71,31.71,0,0,0-.18,3.84,21.16,21.16,0,0,1,6.25,2.1,3.19,3.19,0,0,1,1.82,2.7,1.21,1.21,0,0,1-1.1,1.35c-.65,0-.82-.12-2.77-1.9a22.16,22.16,0,0,0-4.2-2.65c0,1.18.08,6.32.08,7.37,0,3.28,0,3.63-.15,4a1.08,1.08,0,0,1-1,.8c-1.35,0-1.77-2.1-1.77-2.65C270.46,35.2,270.61,34.3,270.64,34Z"/><path class="cls-4" d="M296.31,17.68a2.84,2.84,0,0,1,1.72-.57c1.2,0,3,.85,3,1.77,0,.25-.3,1.28-.32,1.5a16.15,16.15,0,0,0-.08,2.08c.93-.05,1.4-.1,1.75-.15a8.88,8.88,0,0,1,1-.15c.65,0,2.88.85,2.88,1.92,0,.75-.83.87-1.23.87s-2.17-.12-2.54-.15c-.68,0-1.3,0-1.9,0-.08,3.42-.28,5.67-1.18,7.49-2.15,4.42-6.64,5.45-7.84,5.72l-.33-.6C297.26,34.2,298,30.53,298,24.8c-2.12.13-2.82.23-5.37.53,0,.65.08,3.57.08,4.17,0,1.92-1.1,2-1.18,2-.87,0-1.4-1.17-1.4-2.29,0-.55,0-3,.08-3.48-.6.1-1.08.18-1.65.33-.2,0-1.6.45-1.77.45-.93,0-2.23-1.53-2.23-2.52a2.85,2.85,0,0,1,.18-1l.67-.12a1.56,1.56,0,0,0,1.48.9c.25,0,3-.33,3.29-.38,0-3.6,0-3.87-1.62-4.17l0-.68a2.6,2.6,0,0,1,1.53-.55c1.17,0,2.7.73,2.7,1.63,0,.25-.15,1.3-.18,1.52,0,.65,0,1.2,0,2,1.32-.15,1.75-.18,5.39-.48,0-3.75,0-4-1.75-4.27Z"/><path class="cls-4" d="M315,27.33a12.42,12.42,0,0,1-2.05,5.49c-1.22,1.75-1.72,1.93-2.19,1.93-1.1,0-1.1-1.3-1.1-1.5a2.61,2.61,0,0,1,1.45-2.52,12.36,12.36,0,0,0,3.27-3.68Zm.13,5.82a24.06,24.06,0,0,0,2.72.75c.28,0,.35-.15.35-.63V25c-2,.23-3.15.41-4.6.7-.07,0-1.49.33-1.62.33a2.77,2.77,0,0,1-2.22-2.42,4.48,4.48,0,0,1,.07-.8l.65-.18a1.72,1.72,0,0,0,1.65.75c.95,0,5.2-.45,6.07-.55,0-3.82,0-3.92-1.72-4.4l.05-.67a3.49,3.49,0,0,1,1.45-.32c1.24,0,3.09,1,3.09,1.84a13.08,13.08,0,0,1-.4,1.43,15.85,15.85,0,0,0-.1,1.92c1.85-.15,3.68-.32,4.7-.47a8.33,8.33,0,0,1,1.05-.1c.55,0,2.6.77,2.6,1.85a.94.94,0,0,1-1,.94c-.72,0-3.89-.12-4.54-.12-1.23,0-2.13.05-2.78.1,0,2.07,0,2.7,0,5.12,0,1.3.08,3.4.08,4.72,0,1.75-.75,3.07-1.82,3.07-.7,0-.83-.44-1-1.19-.3-1-.62-1.35-2.95-2.78Zm7.67-6.55c1.8.78,6.19,2.83,6.19,5.65,0,1.27-.75,1.67-1.27,1.67-.82,0-1.1-.57-2-2.35a16.94,16.94,0,0,0-3.35-4.42Zm7.94-8.29a3.16,3.16,0,1,1-3.17-3.15A3.18,3.18,0,0,1,330.72,18.31Zm-5,0a1.82,1.82,0,0,0,1.82,1.85,1.84,1.84,0,1,0,0-3.67A1.83,1.83,0,0,0,325.73,18.31Z"/><path class="cls-4" d="M333.29,25.18a2.15,2.15,0,0,0,2.25,1.07c.3,0,7.6-.3,11.82-.5.42,0,2.37-.2,2.65-.2.67,0,3,.6,3,2a1,1,0,0,1-1.15,1.08c-.39,0-3.42-.1-4-.1-1.38,0-7.95.07-11.34.52-.25,0-1.4.28-1.65.28-1.15,0-2.35-2-2.35-3a4.37,4.37,0,0,1,.12-1Z"/><path class="cls-4" d="M360.37,34a21.39,21.39,0,0,0,.1-2.23V21.08c-.05-2.25-.05-2.55-1.85-3l0-.67a3.68,3.68,0,0,1,1.55-.42c1.32,0,3.35.92,3.35,1.92,0,.27-.28,1.37-.3,1.6a31.71,31.71,0,0,0-.18,3.84,21.27,21.27,0,0,1,6.25,2.1,3.19,3.19,0,0,1,1.82,2.7,1.21,1.21,0,0,1-1.1,1.35c-.65,0-.82-.12-2.77-1.9a22.48,22.48,0,0,0-4.2-2.65c0,1.18.08,6.32.08,7.37,0,3.28,0,3.63-.15,4a1.08,1.08,0,0,1-1,.8c-1.35,0-1.77-2.1-1.77-2.65C360.2,35.2,360.35,34.3,360.37,34Z"/><path class="cls-4" d="M381.34,36.5c3.72-4.23,4.85-5.6,6.12-8.87h-1.84c-.58,0-.88,0-1.6.07a3.86,3.86,0,0,1,.07.65,1.28,1.28,0,0,1-1.2,1.45c-.6,0-.72-.5-.92-1.22a9.77,9.77,0,0,0-1.33-2.95V33c0,.78.05,4.25.05,5,0,.35,0,1.07-1.82,1.07-.72,0-.75-.25-.75-.85s.05-3.42.05-4V28.73a16.21,16.21,0,0,1-3.52,5l-.55-.42A28.73,28.73,0,0,0,378,23h-.92a17.38,17.38,0,0,0-2,.1l-.6-2.1c.73,0,1.5.1,2.53.1h1.17v-3a24.67,24.67,0,0,0-.1-2.47l2.87.35c.18,0,.6.1.6.47s-.37.6-.9.83v3.84h.53l.72-1.15a.39.39,0,0,1,.33-.25.6.6,0,0,1,.37.23l1.35,1.8a2.33,2.33,0,0,1,.18.3,30.18,30.18,0,0,0,1.05-5.12l2.57.64c.6.15.72.33.72.58s-.4.5-.92.6c-.33.8-.53,1.22-.8,1.8h2.15V18.14a21.18,21.18,0,0,0-.08-2.5l3,.35c.23,0,.62.1.62.47s-.49.65-.94.83v3.27h2l1-1.45c.15-.23.28-.3.4-.3s.23.05.43.25L397,21c.45.5.45.73.45.83,0,.4-.33.65-.85.65h-5.12v3.29h2.09l1.05-1.57a.52.52,0,0,1,.43-.25.71.71,0,0,1,.42.22l2,2a1.22,1.22,0,0,1,.4.8c0,.4-.3.65-.8.65h-4.95c1.57,2.55,2.87,4.4,6.22,6.07v.7a3.07,3.07,0,0,0-2,2.42,19.54,19.54,0,0,1-4.89-8.52v5.12c0,.7.05,3.83.05,4.45,0,.4,0,1.13-1.8,1.13-.8,0-.9-.15-.9-.85,0-.55.05-3.53.05-4v-4A22,22,0,0,1,381.82,37Zm7.55-10.75V22.46h-3.2a19.75,19.75,0,0,1-2.07,2.95l-.63-.33a13.53,13.53,0,0,0,.85-2.1.62.62,0,0,1-.32.05h-2.88v1.55a8,8,0,0,1,2.6,1.67l-.2-.6c.53,0,1.38.1,2.52.1Z"/><path class="cls-4" d="M415.51,16c.3,0,.67.08.67.4s-.37.52-.8.7c0,.58,0,3,.05,3.5h3.73l.52-.68c-.45-.1-.52-.2-1.12-1.05a17.47,17.47,0,0,0-2.18-2.34l.28-.63c4.17.28,4.6,1.93,4.6,2.57a1.58,1.58,0,0,1-.38,1l2,1.7a.84.84,0,0,1,.4.7c0,.45-.5.6-.92.6h-6.87c.32,5.24,1.4,8.22,2.32,9.79s2.2,2.57,2.55,2.57.73-.6,1-1.17c.67-1.4.75-1.55,1.2-2.68l.65.26a33.33,33.33,0,0,0-.55,3.77,3.08,3.08,0,0,0,.37,1.55,2.17,2.17,0,0,1,.3,1,1.44,1.44,0,0,1-1.62,1.32c-1.8,0-8.14-2.47-9-16.36H402.49a12.44,12.44,0,0,0-1.77.1l-.65-2.1c.62.05,1.42.1,2.5.1h10.09c0-.25-.2-4.82-.2-5Zm-7.37,17.79,5-.78.23.68c-1.75,1-4.5,2-10.6,3.9-.05.34-.15.87-.6.87-.25,0-.35-.15-.52-.65l-1.1-3.17a47.29,47.29,0,0,0,4.9-.45V28.2h-1.85a13.46,13.46,0,0,0-1.78.1l-.67-2.1c.65.05,1.4.1,2.52.1h4.55l.95-1.35c.15-.19.25-.25.37-.25A.75.75,0,0,1,410,25l2,2a.87.87,0,0,1,.35.67c0,.5-.55.6-.95.6h-3.22Z"/><path class="cls-4" d="M437,23.73l.92-1.27c.1-.15.2-.28.4-.28a.69.69,0,0,1,.43.2l2,1.9a1.11,1.11,0,0,1,.42.72c0,.63-.8.63-1,.63h-7.47c-.55,0-1.25.05-1.77.1l-.55-1.7a20.67,20.67,0,0,1-5.8,3.27l-.4-.57c2.13-1.7,7.65-6.12,9.75-11.27l3,.68c.85.2.87.42.87.57,0,.4-.4.47-.6.52a20.82,20.82,0,0,0,11,6.25v.7a4.26,4.26,0,0,0-2.2,2.62,24.59,24.59,0,0,1-9.57-9,34.69,34.69,0,0,1-5.54,5.89c.3,0,1.05.05,1.95.05ZM427.7,30.4a14.65,14.65,0,0,0-1.77.1l-.68-2.1c.73.05,1.5.1,2.52.1H442l1.15-1.7a.52.52,0,0,1,.4-.25.72.72,0,0,1,.43.2l2.55,2.3a1,1,0,0,1,.37.73c0,.32-.3.62-.95.62H435.49a38.49,38.49,0,0,1-3.79,4.65c4.44-.18,4.94-.2,9.27-.48a31.87,31.87,0,0,0-2.7-3.15l.45-.57c1.87.72,6.64,3.62,6.64,6.3a1.58,1.58,0,0,1-1.5,1.74c-.75,0-.9-.39-1.4-1.57a9.72,9.72,0,0,0-.8-1.62c-3.64.85-7.91,1.67-12.61,2.32-.15,0-.63.1-.75.1-.05.25-.18.75-.6.75-.27,0-.4-.3-.5-.57L426.05,35c.8,0,1.75.1,3.82.08a26.71,26.71,0,0,0,2-4.7Z"/><path class="cls-4" d="M457.36,19.26c.15-.18.22-.23.35-.23a.42.42,0,0,1,.37.23L459.53,21c.25.3.3.45.3.62,0,.4-.15.45-1.5.95a25,25,0,0,1-2.52,3.55c.87.22,3.75,1.45,3.75,3.37a1.5,1.5,0,0,1-1.33,1.62c-.58,0-.65-.15-1.22-1.54a8.33,8.33,0,0,0-1.3-2.38v8.1c0,.4.05,2.15.05,2.52,0,.83-.68,1.15-1.85,1.15-.75,0-.85-.25-.85-.67s.05-2.48.05-2.88V28.9a22.17,22.17,0,0,1-3.62,2.6l-.4-.57c4.27-4.65,5.37-6.63,6.39-8.92h-3.57a13,13,0,0,0-1.77.1l-.65-2.1c.77,0,1.52.1,2.52.1h1.12V18.58c0-.7,0-1.67-.1-2.94l3,.35c.42,0,.65.2.65.5s-.25.47-1,.74v2.88h.95Zm6.22-.53a23.94,23.94,0,0,0-.13-3l3.23.38c.32.05.62.15.62.47s-.13.45-.93.77v6.45H468l.93-1.37c.15-.23.25-.3.4-.3s.35.15.5.25l1.87,2c.4.4.4.6.4.72,0,.4-.4.65-.95.65h-4.8V36h2.05l1.08-1.48a.39.39,0,0,1,.37-.27.61.61,0,0,1,.45.25l2,2.07a1.22,1.22,0,0,1,.4.73c0,.27-.25.6-1,.6H459.7a12.86,12.86,0,0,0-1.77.1l-.67-2.1c.72.07,1.52.1,2.52.1h3.8V25.75h-2.83a15.26,15.26,0,0,0-1.77.08l-.68-2.07c.65,0,1.4.07,2.53.07h2.75Z"/><path class="cls-4" d="M143.67,44.71c0,1.3-.08,2.54-.1,3.71s0,2.31,0,3.38v4.64c0,1.07,0,1.81.05,2.23a3.19,3.19,0,0,0,.15.86.68.68,0,0,0,.39.35,2.12,2.12,0,0,0,.73.11h.24v.9l-1.74-.09-1.21,0-1.11,0-1.57.09V60h.32c.87,0,1.3-1.08,1.3-3.24,0-.34,0-.61,0-.8l0-4.78V48.37a4.37,4.37,0,0,0-.18-1.56.69.69,0,0,0-.68-.38H140l-.3.05-.12-.84c.75-.11,1.46-.25,2.14-.4S143,44.92,143.67,44.71Z"/><path class="cls-4" d="M151.65,50.19c0,1.5-.08,2.82-.1,3.94s0,2,0,2.76v1.22a3.11,3.11,0,0,0,.25,1.56,1.06,1.06,0,0,0,.93.34H153v.9l-1.68-.09-1.19,0-1.08,0-1.6.09V60h.22q1.33,0,1.35-2.46v-.62l0-2.23v-.92a3.59,3.59,0,0,0-.19-1.5.77.77,0,0,0-.73-.34l-.34,0-.17,0-.16-.84c.74-.1,1.45-.22,2.13-.38S151,50.41,151.65,50.19Zm-1.46-5.25.95.65a2.14,2.14,0,0,1,.53.5,1.08,1.08,0,0,1,.17.57,1,1,0,0,1-.14.54,1.64,1.64,0,0,1-.48.46l-1,.69-.94-.63a1.86,1.86,0,0,1-.56-.5.93.93,0,0,1-.19-.54,1,1,0,0,1,.15-.55,1.87,1.87,0,0,1,.53-.52Z"/><path class="cls-4" d="M159.45,50.11v.74h.69l1.07,0,1.07,0c0,.09,0,.21,0,.37s0,.26,0,.31v.63h-.2c-1-.05-1.69-.07-2.12-.07h-.46c0,.42,0,.87,0,1.34v2.05c0,.26,0,.61,0,1s0,.73,0,.89a5,5,0,0,0,.3,2.19,1.27,1.27,0,0,0,1.16.48h.32l.2,0v.88l-1.72-.09-1.32,0-1.22,0-1.75.09V60h.32a1,1,0,0,0,1-.44,4.32,4.32,0,0,0,.26-1.91c0-.16,0-.45,0-.89s0-.78,0-1.06V52.05h-.75l-.29,0-.51,0v-1a3,3,0,0,0,.86-.17,1.87,1.87,0,0,0,.67-.41,6.18,6.18,0,0,1,1.55-4.24,5.18,5.18,0,0,1,3.95-1.55,2.93,2.93,0,0,1,1.61.38,1.19,1.19,0,0,1,.59,1.05,1.12,1.12,0,0,1-.27.78.93.93,0,0,1-.71.3,3.08,3.08,0,0,1-1.23-.45,3.09,3.09,0,0,0-1.32-.45,1.34,1.34,0,0,0-1.29.8A7.88,7.88,0,0,0,159.45,50.11Z"/><path class="cls-4" d="M174,55.32h-4.36l-1.67,0c-.37,0-.71,0-1,.07a4.31,4.31,0,0,0,.92,2.93,3.22,3.22,0,0,0,2.56,1.07,4.88,4.88,0,0,0,1.55-.25,6.29,6.29,0,0,0,1.55-.75l.47.9a10,10,0,0,1-2.38,1.44,6.1,6.1,0,0,1-2.32.48,4.78,4.78,0,0,1-3.59-1.46,5.2,5.2,0,0,1-1.4-3.75,5.93,5.93,0,0,1,1.52-4.15,4.84,4.84,0,0,1,3.72-1.67,4.07,4.07,0,0,1,3.2,1.4A5.55,5.55,0,0,1,174,55.32Zm-2.48-1.27a3.91,3.91,0,0,0-.8-1.91,1.73,1.73,0,0,0-1.38-.69,2,2,0,0,0-1.59.75,3.76,3.76,0,0,0-.78,2.08h.66c.85,0,1.6,0,2.23-.06S171.05,54.12,171.52,54.05Z"/><path class="cls-4" d="M188,50.21c0,.22-.06.59-.1,1.1,0,.24,0,.41,0,.52a14.53,14.53,0,0,1,2.12-1.25,3.91,3.91,0,0,1,1.56-.37,3.06,3.06,0,0,1,1.64.43,3,3,0,0,1,1.1,1.33,12.42,12.42,0,0,1,2.18-1.35,4.21,4.21,0,0,1,1.7-.41,2.76,2.76,0,0,1,2.26,1,4.39,4.39,0,0,1,.8,2.81v.9l0,2.63s0,.19,0,.42,0,.44,0,.63a1.91,1.91,0,0,0,.23,1.16,1.2,1.2,0,0,0,.92.27h.26v.88L201,60.8l-1.19,0-1,0-1.48.09V60l.13,0h.21a.86.86,0,0,0,.85-.42,6.18,6.18,0,0,0,.22-2.13V56.31c0-.24,0-.56,0-1s0-.68,0-.83a3.24,3.24,0,0,0-.45-1.91A1.64,1.64,0,0,0,197,52a3.13,3.13,0,0,0-1.06.22,8.58,8.58,0,0,0-1.36.68l0,4.81c0,.33,0,.64,0,1v.06a1.83,1.83,0,0,0,.2,1,1,1,0,0,0,.78.24h.26v.88l-1.5-.09-1.19,0-.86,0-1.39.09V60l.14,0h.2a.8.8,0,0,0,.8-.43,5.66,5.66,0,0,0,.21-2V54.47a3.28,3.28,0,0,0-.43-1.88,1.6,1.6,0,0,0-1.37-.58,3.3,3.3,0,0,0-1.07.21,8.17,8.17,0,0,0-1.35.65c0,.23,0,.56,0,1,0,2-.07,3.35-.07,4.09A4.09,4.09,0,0,0,188,59.7c.13.21.41.31.84.31h.3v.88l-1.58-.09-1.16,0c-.3,0-.91,0-1.8.08l-.69,0V60h.26c.85,0,1.29-.85,1.29-2.57,0-.21,0-.37,0-.49V53.83a4.16,4.16,0,0,0-.18-1.55.69.69,0,0,0-.67-.36l-.2,0-.3.05-.09-.82q.75-.15,1.62-.36T188,50.21Z"/><path class="cls-4" d="M215,59.11l.38.8a9.54,9.54,0,0,1-1.7.93,3.61,3.61,0,0,1-1.36.31,1.49,1.49,0,0,1-1.1-.37,1.72,1.72,0,0,1-.44-1.12,12.14,12.14,0,0,1-1.93,1.14,3.39,3.39,0,0,1-1.41.35,2.43,2.43,0,0,1-1.87-.85,3,3,0,0,1-.77-2q0-2,4.48-3l1.53-.37c0-.17,0-.34,0-.51s0-.32,0-.47a2.48,2.48,0,0,0-.44-1.63,1.72,1.72,0,0,0-1.38-.51,2.08,2.08,0,0,0-1.06.25.78.78,0,0,0-.48.58s0,.08,0,.14c0,.69-.48,1-1.31,1a1.45,1.45,0,0,1-.73-.15.53.53,0,0,1-.25-.46c0-.56.52-1.19,1.55-1.88a5.68,5.68,0,0,1,3.23-1,3.41,3.41,0,0,1,2.51.86,3.46,3.46,0,0,1,.85,2.53c0,.33,0,1-.07,2.07s-.08,1.93-.08,2.65a1.78,1.78,0,0,0,.17.92.55.55,0,0,0,.52.28,1.51,1.51,0,0,0,.49-.1A4.65,4.65,0,0,0,215,59.11Zm-4.17-3.2-.67.18c-2,.55-3,1.21-3,2a1.46,1.46,0,0,0,.41,1.05,1.36,1.36,0,0,0,1,.42,2.39,2.39,0,0,0,.91-.2,10.58,10.58,0,0,0,1.32-.68Z"/><path class="cls-4" d="M221,50.19l-.17,1.71A13.16,13.16,0,0,1,223,50.6a3.86,3.86,0,0,1,1.57-.41,3.07,3.07,0,0,1,2.47,1,4.15,4.15,0,0,1,.84,2.82q0,.36,0,1.65c0,.86,0,1.6,0,2.23A4.25,4.25,0,0,0,228,59.7a1,1,0,0,0,.9.31h.22l0,.88-1.59-.09-1.06,0-1.08,0-1.49.09V60H224c.87,0,1.31-.87,1.33-2.61V55.07a4.78,4.78,0,0,0-.42-2.43,1.58,1.58,0,0,0-1.42-.63,3.48,3.48,0,0,0-1.17.22,6.9,6.9,0,0,0-1.38.7q0,.95-.06,2c0,.68,0,1.4,0,2.18v.85a4.11,4.11,0,0,0,.22,1.76A1,1,0,0,0,222,60h.17v.88l-1.53-.09-1.12,0-1.11,0-1.53.09V60h.24c.87,0,1.31-.87,1.32-2.62,0-.21,0-.37,0-.48l0-2.16v-.92a4,4,0,0,0-.18-1.53.69.69,0,0,0-.68-.35l-.41,0h-.1l-.06-.82c.58-.09,1.19-.21,1.83-.37S220.22,50.43,221,50.19Z"/><path class="cls-4" d="M241.64,59.11l.39.8a9.26,9.26,0,0,1-1.71.93,3.52,3.52,0,0,1-1.35.31,1.49,1.49,0,0,1-1.1-.37,1.68,1.68,0,0,1-.45-1.12,12.12,12.12,0,0,1-1.92,1.14,3.39,3.39,0,0,1-1.41.35,2.42,2.42,0,0,1-1.87-.85,2.92,2.92,0,0,1-.78-2q0-2,4.49-3l1.52-.37c0-.17,0-.34,0-.51v-.47a2.48,2.48,0,0,0-.43-1.63,1.72,1.72,0,0,0-1.38-.51,2.12,2.12,0,0,0-1.07.25.79.79,0,0,0-.47.58.57.57,0,0,0,0,.14c0,.69-.48,1-1.32,1a1.43,1.43,0,0,1-.72-.15.51.51,0,0,1-.25-.46c0-.56.51-1.19,1.54-1.88a5.74,5.74,0,0,1,3.24-1A3,3,0,0,1,240,53.6c0,.33,0,1-.08,2.07s-.08,1.93-.08,2.65a1.89,1.89,0,0,0,.17.92.56.56,0,0,0,.52.28,1.42,1.42,0,0,0,.49-.1A3.81,3.81,0,0,0,241.64,59.11Zm-4.17-3.2-.67.18c-2,.55-3,1.21-3,2a1.45,1.45,0,0,0,.4,1.05,1.4,1.4,0,0,0,1,.42,2.38,2.38,0,0,0,.9-.2,9.35,9.35,0,0,0,1.32-.68Z"/><path class="cls-4" d="M251.43,50.92l1.84,0c.43,0,.84,0,1.22-.07l0,1.24-1-.08-1.24,0a2.72,2.72,0,0,1,.7.92,2.58,2.58,0,0,1,.22,1.08,3,3,0,0,1-1.23,2.43,4.76,4.76,0,0,1-3.07,1l-.7,0H248a3.94,3.94,0,0,0-.44.31,5.57,5.57,0,0,0-.52.44,3.78,3.78,0,0,0,.44.55,2.94,2.94,0,0,0,.46.41H251a4.14,4.14,0,0,1,2.5.62,2.26,2.26,0,0,1,.81,1.91,3.45,3.45,0,0,1-.52,1.75,5.38,5.38,0,0,1-1.48,1.58,6.78,6.78,0,0,1-2.06,1,7.27,7.27,0,0,1-2.31.39,4.93,4.93,0,0,1-3-.84,2.5,2.5,0,0,1-1.16-2.09,2.45,2.45,0,0,1,.5-1.45A7.51,7.51,0,0,1,246,60.46a5.23,5.23,0,0,1-.78-.89,4.57,4.57,0,0,1-.49-1,6.92,6.92,0,0,1,.9-.76,10.31,10.31,0,0,1,1.15-.71,3.82,3.82,0,0,1-2-1.11,2.92,2.92,0,0,1-.68-2,3.39,3.39,0,0,1,1.3-2.68,4.78,4.78,0,0,1,3.2-1.11,6.19,6.19,0,0,1,1.5.17A4.86,4.86,0,0,1,251.43,50.92Zm-4.65,10.14a3.43,3.43,0,0,0-.61.83,1.82,1.82,0,0,0-.2.8,1.87,1.87,0,0,0,.83,1.54,3.42,3.42,0,0,0,2.1.62,4.16,4.16,0,0,0,2.47-.7,2,2,0,0,0,1-1.67,1.14,1.14,0,0,0-.6-1.11,6.22,6.22,0,0,0-2.46-.31Zm1.87-9.87a1.89,1.89,0,0,0-1.51.67,2.86,2.86,0,0,0-.55,1.84,3.29,3.29,0,0,0,.55,2,1.83,1.83,0,0,0,1.55.73,1.92,1.92,0,0,0,1.54-.65,2.77,2.77,0,0,0,.55-1.84,3.31,3.31,0,0,0-.54-2.06A1.88,1.88,0,0,0,248.65,51.19Z"/><path class="cls-4" d="M266.47,55.32h-4.36l-1.67,0c-.37,0-.71,0-1,.07a4.36,4.36,0,0,0,.92,2.93,3.22,3.22,0,0,0,2.56,1.07,4.88,4.88,0,0,0,1.55-.25,6.29,6.29,0,0,0,1.55-.75l.47.9a10,10,0,0,1-2.38,1.44,6.1,6.1,0,0,1-2.32.48,4.78,4.78,0,0,1-3.59-1.46,5.2,5.2,0,0,1-1.4-3.75,5.93,5.93,0,0,1,1.52-4.15A4.84,4.84,0,0,1,262,50.21a4.06,4.06,0,0,1,3.2,1.4A5.55,5.55,0,0,1,266.47,55.32ZM264,54.05a3.91,3.91,0,0,0-.8-1.91,1.73,1.73,0,0,0-1.38-.69,2,2,0,0,0-1.59.75,3.76,3.76,0,0,0-.78,2.08h.66c.85,0,1.6,0,2.23-.06S263.52,54.12,264,54.05Z"/><path class="cls-4" d="M273,50.21c0,.22-.06.59-.1,1.1,0,.24,0,.41,0,.52A14.53,14.53,0,0,1,275,50.58a3.91,3.91,0,0,1,1.56-.37A2.79,2.79,0,0,1,279.29,52a12.42,12.42,0,0,1,2.18-1.35,4.21,4.21,0,0,1,1.69-.41,2.78,2.78,0,0,1,2.27,1,4.39,4.39,0,0,1,.8,2.81v.9l-.05,2.63s0,.19,0,.42,0,.44,0,.63a1.89,1.89,0,0,0,.24,1.16,1.19,1.19,0,0,0,.91.27h.26v.88l-1.51-.09-1.18,0-1,0-1.48.09V60l.13,0h.21a.86.86,0,0,0,.85-.42,6.28,6.28,0,0,0,.21-2.13V56.31c0-.24,0-.56,0-1s0-.68,0-.83a3.24,3.24,0,0,0-.45-1.91A1.63,1.63,0,0,0,282,52a3,3,0,0,0-1.05.22,8.18,8.18,0,0,0-1.36.68l0,4.81c0,.33,0,.64,0,1v.06a1.74,1.74,0,0,0,.2,1,1,1,0,0,0,.78.24h.26v.88l-1.5-.09-1.2,0-.85,0-1.39.09V60l.13,0h.2a.81.81,0,0,0,.81-.43,5.66,5.66,0,0,0,.21-2V54.47a3.19,3.19,0,0,0-.44-1.88,1.58,1.58,0,0,0-1.36-.58,3.41,3.41,0,0,0-1.08.21,9,9,0,0,0-1.35.65c0,.23,0,.56,0,1,0,2-.06,3.35-.06,4.09a4.34,4.34,0,0,0,.2,1.75,1,1,0,0,0,.85.31h.3v.88l-1.58-.09-1.16,0c-.31,0-.91,0-1.81.08l-.69,0V60h.26c.86,0,1.29-.85,1.3-2.57,0-.21,0-.37,0-.49V53.83a4.16,4.16,0,0,0-.18-1.55.69.69,0,0,0-.68-.36l-.2,0-.29.05-.09-.82q.75-.15,1.62-.36T273,50.21Z"/><path class="cls-4" d="M299.55,55.32H295.2l-1.68,0c-.36,0-.71,0-1,.07a4.31,4.31,0,0,0,.93,2.93A3.19,3.19,0,0,0,296,59.42a4.88,4.88,0,0,0,1.55-.25,6.29,6.29,0,0,0,1.55-.75l.47.9a9.82,9.82,0,0,1-2.38,1.44,6.06,6.06,0,0,1-2.32.48,4.76,4.76,0,0,1-3.58-1.46,5.16,5.16,0,0,1-1.4-3.75,5.93,5.93,0,0,1,1.51-4.15,4.84,4.84,0,0,1,3.72-1.67,4,4,0,0,1,3.2,1.4A5.5,5.5,0,0,1,299.55,55.32Zm-2.47-1.27a4.1,4.1,0,0,0-.8-1.91,1.76,1.76,0,0,0-1.39-.69,2,2,0,0,0-1.58.75,3.84,3.84,0,0,0-.79,2.08h.66c.86,0,1.6,0,2.24-.06S296.6,54.12,297.08,54.05Z"/><path class="cls-4" d="M306.14,50.19,306,51.9a13.16,13.16,0,0,1,2.15-1.3,3.86,3.86,0,0,1,1.57-.41,3.11,3.11,0,0,1,2.48,1A4.2,4.2,0,0,1,313,54c0,.24,0,.79,0,1.65s0,1.6,0,2.23a4.25,4.25,0,0,0,.23,1.85,1,1,0,0,0,.9.31h.22l0,.88-1.59-.09-1.06,0-1.08,0-1.49.09V60h.12c.87,0,1.31-.87,1.33-2.61V55.07a4.78,4.78,0,0,0-.42-2.43,1.58,1.58,0,0,0-1.42-.63,3.48,3.48,0,0,0-1.17.22,6.9,6.9,0,0,0-1.38.7q0,.95-.06,2c0,.68,0,1.4,0,2.18v.85a4.11,4.11,0,0,0,.22,1.76,1,1,0,0,0,.89.34h.17v.88l-1.53-.09-1.12,0-1.11,0-1.53.09V60h.24c.87,0,1.31-.87,1.32-2.62,0-.21,0-.37,0-.48l0-2.16v-.92a4,4,0,0,0-.18-1.53.68.68,0,0,0-.67-.35l-.42,0h-.1l-.06-.82c.58-.09,1.19-.21,1.83-.37S305.37,50.43,306.14,50.19Z"/><path class="cls-4" d="M319.63,48.39l.92.27c-.05.39-.08.76-.11,1.11s-.05.69-.06,1q1.37,0,2,0t1.23-.06l-.27,1.42L322,52c-.5,0-1,0-1.58,0,0,.92,0,1.7-.05,2.36s0,1.16,0,1.53a8.41,8.41,0,0,0,.33,3,1.16,1.16,0,0,0,1.16.69,2.52,2.52,0,0,0,.76-.13,6.25,6.25,0,0,0,1-.42l.4.88a15.56,15.56,0,0,1-2.05,1,4.5,4.5,0,0,1-1.48.34,2.29,2.29,0,0,1-2-.85,4.27,4.27,0,0,1-.64-2.6c0-.23,0-1,.06-2.27s.05-2.45.05-3.51l-.49,0-1.12,0v-1a4.18,4.18,0,0,0,2-.84A4.5,4.5,0,0,0,319.63,48.39Z"/><path class="cls-4" d="M341.41,50.72a12.16,12.16,0,0,0,.07,1.34,13.45,13.45,0,0,0,.19,1.36l-1,.2a2.62,2.62,0,0,0-.69-1.7,2.33,2.33,0,0,0-1.64-.53,2.08,2.08,0,0,0-1.37.43,1.3,1.3,0,0,0-.53,1.09c0,.62.81,1.17,2.43,1.67l.08,0a6.27,6.27,0,0,1,2.48,1.22,2.48,2.48,0,0,1,.66,1.82,3.09,3.09,0,0,1-1.31,2.56,5.3,5.3,0,0,1-3.36,1,8.25,8.25,0,0,1-1.65-.17,7.62,7.62,0,0,1-1.56-.48c0-.08,0-.17,0-.26v-.44a11.13,11.13,0,0,0-.05-1.16,10.24,10.24,0,0,0-.16-1.13l1-.24a3.84,3.84,0,0,0,.89,2.07,2.49,2.49,0,0,0,1.83.65,2.6,2.6,0,0,0,1.6-.45,1.47,1.47,0,0,0,.59-1.23c0-.61-.86-1.21-2.59-1.78l-.65-.22a4.11,4.11,0,0,1-1.79-1.06,2.46,2.46,0,0,1-.54-1.64,3.07,3.07,0,0,1,1.17-2.51,4.78,4.78,0,0,1,3.13-1,6.69,6.69,0,0,1,1.28.13A13.19,13.19,0,0,1,341.41,50.72Z"/><path class="cls-4" d="M348.65,50.26c0,1.24-.09,2.37-.11,3.37s0,1.84,0,2.51a5.45,5.45,0,0,0,.43,2.54,1.53,1.53,0,0,0,1.43.72,3.39,3.39,0,0,0,1.13-.23,8.42,8.42,0,0,0,1.35-.67c0-1,0-1.84.05-2.54s0-1.25,0-1.66v-.47a3.31,3.31,0,0,0-.23-1.62,1,1,0,0,0-.88-.33h-.47l-.06-.83c.73-.07,1.45-.16,2.14-.25s1.38-.22,2.05-.35c-.05,1.62-.08,2.85-.1,3.69s0,1.62,0,2.34v1a5.24,5.24,0,0,0,.16,1.71.67.67,0,0,0,.67.35,1.37,1.37,0,0,0,.28,0l.32-.06.1.86-4,.89V59.58a11.18,11.18,0,0,1-2.06,1.25,4.25,4.25,0,0,1-1.66.36,2.81,2.81,0,0,1-2.34-1,4.78,4.78,0,0,1-.76-3v-.69c0-.18,0-.36,0-.54l0-1.42c0-.14,0-.32,0-.54s0-.37,0-.46a3.6,3.6,0,0,0-.18-1.4.65.65,0,0,0-.64-.36l-.55,0h-.06l-.06-.85c.66-.09,1.32-.19,2-.32S348,50.43,348.65,50.26Z"/><path class="cls-4" d="M363.13,49.93,363,51.62a9.05,9.05,0,0,1,1.74-1,4.48,4.48,0,0,1,1.59-.3,3.93,3.93,0,0,1,3.09,1.41,5.15,5.15,0,0,1,1.23,3.51,5.71,5.71,0,0,1-1.53,4.16,5.32,5.32,0,0,1-4,1.58,6.91,6.91,0,0,1-1.14-.1,5,5,0,0,1-1-.29l0,2.1v.84a2.63,2.63,0,0,0,.27,1.51,1.66,1.66,0,0,0,1.18.3h.41v.92l-1.85-.08-1.34,0-.93,0-1.81.08v-.92H359a2.56,2.56,0,0,0,.83-.1.67.67,0,0,0,.39-.32,4,4,0,0,0,.23-1.31q.06-.95.06-3.66V54.66a7.57,7.57,0,0,0-.19-2.19.75.75,0,0,0-.75-.48l-.31,0-.2,0-.1-.79a18.8,18.8,0,0,0,2.12-.54A16.45,16.45,0,0,0,363.13,49.93ZM363,59.11a4.1,4.1,0,0,0,1.07.47,3.69,3.69,0,0,0,1.13.17,2.64,2.64,0,0,0,2.15-1,4,4,0,0,0,.79-2.64,5,5,0,0,0-.8-3,2.51,2.51,0,0,0-2.14-1.1,4.23,4.23,0,0,0-1.13.16,3.89,3.89,0,0,0-1,.47c0,.9,0,1.76,0,2.57s0,1.55,0,2.21Z"/><path class="cls-4" d="M377.06,49.93l-.1,1.69a8.76,8.76,0,0,1,1.74-1,4.46,4.46,0,0,1,1.58-.3,3.93,3.93,0,0,1,3.09,1.41,5.16,5.16,0,0,1,1.24,3.51,5.71,5.71,0,0,1-1.53,4.16,5.35,5.35,0,0,1-4,1.58,7.11,7.11,0,0,1-1.14-.1,5.16,5.16,0,0,1-1-.29l0,2.1v.84a2.52,2.52,0,0,0,.28,1.51,1.63,1.63,0,0,0,1.17.3h.41v.92l-1.84-.08-1.34,0-.94,0-1.8.08v-.92H373a2.52,2.52,0,0,0,.83-.1.66.66,0,0,0,.4-.32,4.34,4.34,0,0,0,.23-1.31q.06-.95.06-3.66V54.66a7.44,7.44,0,0,0-.2-2.19.73.73,0,0,0-.74-.48l-.32,0L373,52l-.11-.79A18.27,18.27,0,0,0,375,50.7,16.45,16.45,0,0,0,377.06,49.93Zm-.17,9.18a4.25,4.25,0,0,0,1.07.47,3.74,3.74,0,0,0,1.13.17,2.68,2.68,0,0,0,2.16-1,4.07,4.07,0,0,0,.78-2.64,5,5,0,0,0-.79-3,2.54,2.54,0,0,0-2.15-1.1,4.28,4.28,0,0,0-1.13.16,3.82,3.82,0,0,0-1,.47c0,.9,0,1.76,0,2.57s0,1.55,0,2.21Z"/><path class="cls-4" d="M392.82,50.21a5.57,5.57,0,0,1,4,1.51,5.1,5.1,0,0,1,1.56,3.82,5.46,5.46,0,0,1-1.63,4.05,5.57,5.57,0,0,1-4.08,1.63,5.43,5.43,0,0,1-4-1.53,5.62,5.62,0,0,1,.11-7.86A5.51,5.51,0,0,1,392.82,50.21Zm-.21,1.37a2.33,2.33,0,0,0-2,1,4.45,4.45,0,0,0-.7,2.7,6.19,6.19,0,0,0,.8,3.36,2.48,2.48,0,0,0,2.17,1.25,2.41,2.41,0,0,0,2-1,4.49,4.49,0,0,0,.75-2.75,5.78,5.78,0,0,0-.83-3.29A2.6,2.6,0,0,0,392.61,51.58Z"/><path class="cls-4" d="M404.74,50.13c-.05.65-.09,1.21-.11,1.68s-.05.87-.06,1.22a9.12,9.12,0,0,1,1.6-2.13,2.19,2.19,0,0,1,1.47-.58,1.32,1.32,0,0,1,1,.4,1.34,1.34,0,0,1,.4,1,1.29,1.29,0,0,1-.25.84.85.85,0,0,1-.69.32,1.82,1.82,0,0,1-.66-.18,2.13,2.13,0,0,0-.68-.17,1.52,1.52,0,0,0-.94.36,5.72,5.72,0,0,0-1.1,1.19c0,.22,0,.56,0,1s0,.81,0,1V57.3a4.94,4.94,0,0,0,.32,2.27,1.46,1.46,0,0,0,1.27.46h.42v.88h0q-2.33-.15-3-.15c-.37,0-1.3,0-2.81.14h-.21V60h.28a1.27,1.27,0,0,0,1.07-.38,3.72,3.72,0,0,0,.28-1.84V54.23A5.53,5.53,0,0,0,402,52.3a.75.75,0,0,0-.73-.38l-.23,0-.27,0-.08-.84a19.89,19.89,0,0,0,2-.41C403.36,50.58,404,50.37,404.74,50.13Z"/><path class="cls-4" d="M414,48.39l.92.27c0,.39-.07.76-.11,1.11s-.05.69-.05,1c.91,0,1.59,0,2,0s.86,0,1.24-.06l-.27,1.42L416.36,52c-.5,0-1,0-1.58,0,0,.92,0,1.7,0,2.36s0,1.16,0,1.53a8.41,8.41,0,0,0,.33,3,1.19,1.19,0,0,0,1.17.69,2.52,2.52,0,0,0,.76-.13,5.8,5.8,0,0,0,1-.42l.41.88a16.19,16.19,0,0,1-2.05,1,4.55,4.55,0,0,1-1.48.34,2.32,2.32,0,0,1-2-.85,4.35,4.35,0,0,1-.63-2.6c0-.23,0-1,.05-2.27s.06-2.45.06-3.51l-.49,0-1.12,0v-1a4.1,4.1,0,0,0,2-.84A4.32,4.32,0,0,0,414,48.39Z"/></svg>